HIERARCHY
ROOT joint_Root
{
	OFFSET 0.0 0.0 0.0
	CHANNELS 6 Xposition Yposition Zposition Zrotation Xrotation Yrotation 
	JOINT Hips
	{
		OFFSET 4.5925 91.4895 -427.239
		CHANNELS 6 Xposition Yposition Zposition Zrotation Xrotation Yrotation 
		JOINT Spine
		{
			OFFSET 15.7357 0.0 0.0
			CHANNELS 6 Xposition Yposition Zposition Zrotation Xrotation Yrotation 
			JOINT Chest
			{
				OFFSET 8.98455 -0.406207 0.0
				CHANNELS 6 Xposition Yposition Zposition Zrotation Xrotation Yrotation 
				JOINT Neck
				{
					OFFSET 16.3773 0.0 0.0
					CHANNELS 6 Xposition Yposition Zposition Zrotation Xrotation Yrotation 
					JOINT Head
					{
						OFFSET 6.45672 0.0 0.0
						CHANNELS 6 Xposition Yposition Zposition Zrotation Xrotation Yrotation 
						End Site
						{
							OFFSET 0.0 0.0 0.0
						}
					}
				}
				JOINT Shoulder_L
				{
					OFFSET 12.9942 -0.242716 4.98039
					CHANNELS 6 Xposition Yposition Zposition Zrotation Xrotation Yrotation 
					JOINT UpperArm_L
					{
						OFFSET 5.34809 0.0 0.0
						CHANNELS 6 Xposition Yposition Zposition Zrotation Xrotation Yrotation 
						JOINT LowerArm_L
						{
							OFFSET 24.3286 1.87007e-05 0.0
							CHANNELS 6 Xposition Yposition Zposition Zrotation Xrotation Yrotation 
							JOINT Hand_L
							{
								OFFSET 22.2916 0.0 0.0
								CHANNELS 6 Xposition Yposition Zposition Zrotation Xrotation Yrotation 
								End Site
								{
									OFFSET 0.0 0.0 0.0
								}
							}
						}
					}
				}
				JOINT Shoulder_R
				{
					OFFSET 12.9945 -0.242716 -4.98039
					CHANNELS 6 Xposition Yposition Zposition Zrotation Xrotation Yrotation 
					JOINT UpperArm_R
					{
						OFFSET -5.34813 0.0 0.0
						CHANNELS 6 Xposition Yposition Zposition Zrotation Xrotation Yrotation 
						JOINT LowerArm_R
						{
							OFFSET -24.3289 0.000322201 0.0
							CHANNELS 6 Xposition Yposition Zposition Zrotation Xrotation Yrotation 
							JOINT Hand_R
							{
								OFFSET -22.2915 -0.000108084 0.0
								CHANNELS 6 Xposition Yposition Zposition Zrotation Xrotation Yrotation 
								End Site
								{
									OFFSET 0.0 0.0 0.0
								}
							}
						}
					}
				}
			}
		}
		JOINT UpperLeg_L
		{
			OFFSET -2.19248 -6.46944 0.0
			CHANNELS 6 Xposition Yposition Zposition Zrotation Xrotation Yrotation 
			JOINT LowerLeg_L
			{
				OFFSET 39.0811 0.0 -1.23785e-05
				CHANNELS 6 Xposition Yposition Zposition Zrotation Xrotation Yrotation 
				JOINT Foot_L
				{
					OFFSET 40.9854 0.0 -1.26872e-05
					CHANNELS 6 Xposition Yposition Zposition Zrotation Xrotation Yrotation 
					JOINT Toes_L
					{
						OFFSET 11.7543 0.0 0.0
						CHANNELS 6 Xposition Yposition Zposition Zrotation Xrotation Yrotation 
						End Site
						{
							OFFSET 0.0 0.0 0.0
						}
					}
				}
			}
		}
		JOINT UpperLeg_R
		{
			OFFSET -2.19251 6.46944 0.0
			CHANNELS 6 Xposition Yposition Zposition Zrotation Xrotation Yrotation 
			JOINT LowerLeg_R
			{
				OFFSET -39.0811 -0.00228153 -0.0401928
				CHANNELS 6 Xposition Yposition Zposition Zrotation Xrotation Yrotation 
				JOINT Foot_R
				{
					OFFSET -40.9854 0.0 0.0
					CHANNELS 6 Xposition Yposition Zposition Zrotation Xrotation Yrotation 
					JOINT Toes_R
					{
						OFFSET -11.7543 0.0 0.0
						CHANNELS 6 Xposition Yposition Zposition Zrotation Xrotation Yrotation 
						End Site
						{
							OFFSET 0.0 0.0 0.0
						}
					}
				}
			}
		}
	}
}
MOTION
Frames:	9
Frame Time:	0.0333333
0.000000 0.000000 0.000000 0.000000 0.000000 -0.000000 -0.373771 90.439400 3.099280 89.570100 -3.810340 11.098800 15.735700 0.000005 -0.000001 85.513700 82.002900 -85.353400 8.984550 -0.406207 -0.000000 8.182350 -1.244910 0.409449 16.377300 -0.000001 -0.000001 6.089440 -2.512920 2.406970 6.456720 -0.000001 -0.000000 -8.791790 -1.815560 5.601170 12.994200 -0.242716 4.980390 -92.067700 7.117740 -73.755300 5.348090 -0.000007 -0.000001 -59.937300 40.304500 -18.262200 24.328600 0.000019 0.000005 8.141960 23.790600 -19.527400 22.291600 -0.000001 0.000005 9.332300 5.265240 1.026740 12.994500 -0.242716 -4.980390 88.016500 12.220900 -80.708300 -5.348130 -0.000001 -0.000004 -61.769200 32.455200 -11.059200 -24.328900 0.000322 -0.000009 1.349840 4.137820 -18.098300 -22.291500 -0.000108 -0.000004 13.977000 5.378680 -2.256730 -2.192480 -6.469440 -0.000000 -174.251000 -13.491200 3.782760 39.081100 -0.000007 -0.000012 -0.210378 0.354856 30.662100 40.985400 -0.000006 -0.000013 0.198106 4.380860 -72.920100 11.754300 -0.000000 0.000003 -0.000182 -0.001707 -16.642100 -2.192510 6.469440 -0.000001 172.674000 19.730900 -175.385000 -39.081100 -0.002282 -0.040193 -0.246631 0.429957 30.169600 -40.985400 0.000008 0.000006 3.007840 13.710800 -72.962400 -11.754300 -0.000006 -0.000006 -0.001947 -0.028048 -17.713600
0.000000 0.000000 0.000000 0.000000 0.000000 -0.000000 -0.385005 90.445200 2.975470 89.598700 -3.818380 11.258900 15.735700 0.000005 -0.000001 85.567200 81.898300 -85.395300 8.984550 -0.406207 -0.000000 8.392310 -1.245590 0.434892 16.377300 -0.000001 -0.000001 6.720620 -2.515030 2.467460 6.456720 -0.000001 -0.000000 -7.810210 -1.741070 5.467760 12.994200 -0.242716 4.980390 -92.102000 7.124380 -73.514400 5.348090 -0.000007 -0.000001 -59.450100 38.671200 -18.594600 24.328600 0.000019 0.000005 8.043980 23.909900 -19.223000 22.291600 -0.000001 0.000005 9.388810 5.269050 0.924088 12.994500 -0.242716 -4.980390 87.958400 12.093600 -80.343600 -5.348130 -0.000001 -0.000004 -61.137700 30.783400 -11.525500 -24.328900 0.000322 -0.000009 1.359860 4.125380 -18.274900 -22.291500 -0.000108 -0.000004 14.158500 5.386560 -2.505560 -2.192480 -6.469440 -0.000000 -174.250000 -13.477200 3.837490 39.081100 -0.000007 -0.000012 -0.209483 0.352908 30.693300 40.985400 -0.000006 -0.000013 0.201976 4.386310 -72.846000 11.754300 -0.000000 0.000003 -0.000172 -0.001627 -16.639200 -2.192510 6.469440 -0.000001 172.632000 19.731600 -175.348000 -39.081100 -0.002282 -0.040193 -0.244534 0.425149 30.239900 -40.985400 0.000008 0.000006 3.045590 13.720400 -72.916700 -11.754300 -0.000006 -0.000006 -0.001943 -0.028005 -17.711900
0.000000 0.000000 0.000000 0.000000 0.000000 -0.000000 -0.405343 90.450600 2.849360 89.620700 -3.801770 11.401200 15.735700 0.000005 -0.000001 85.505200 81.811000 -85.325600 8.984550 -0.406207 -0.000000 8.565240 -1.276100 0.454506 16.377300 -0.000001 -0.000001 7.359590 -2.514500 2.572240 6.456720 -0.000001 -0.000000 -6.769880 -1.566990 5.299030 12.994200 -0.242716 4.980390 -92.125100 7.042220 -73.161000 5.348090 -0.000007 -0.000001 -59.489600 35.918800 -18.579700 24.328600 0.000019 0.000005 8.224110 24.326500 -19.333900 22.291600 -0.000001 0.000005 9.266630 5.279480 0.637885 12.994500 -0.242716 -4.980390 87.890200 11.853800 -79.832200 -5.348130 -0.000001 -0.000004 -60.816600 28.102200 -11.876200 -24.328900 0.000322 -0.000009 1.580090 4.644860 -18.821900 -22.291500 -0.000108 -0.000004 14.400700 5.393160 -2.715420 -2.192480 -6.469440 -0.000000 -174.245000 -13.452100 3.866700 39.081100 -0.000007 -0.000012 -0.210009 0.353248 30.732200 40.985400 -0.000006 -0.000013 0.193305 4.370100 -72.771200 11.754300 -0.000000 0.000003 -0.000174 -0.001648 -16.640000 -2.192510 6.469440 -0.000001 172.614000 19.698600 -175.317000 -39.081100 -0.002282 -0.040193 -0.245552 0.425909 30.297600 -40.985400 0.000008 0.000006 3.077580 13.702700 -72.874500 -11.754300 -0.000006 -0.000006 -0.002002 -0.028737 -17.741600
0.000000 0.000000 0.000000 0.000000 0.000000 -0.000000 -0.417781 90.467800 2.684470 89.633100 -3.833140 11.518700 15.735700 0.000005 -0.000001 85.468900 81.750700 -85.288700 8.984550 -0.406207 -0.000000 8.684710 -1.295510 0.458623 16.377300 -0.000001 -0.000001 8.094920 -2.472720 2.669220 6.456720 -0.000001 -0.000000 -5.748300 -1.401020 5.175530 12.994200 -0.242716 4.980390 -92.148200 6.967720 -72.817800 5.348090 -0.000007 -0.000001 -60.076000 31.474300 -18.083100 24.328600 0.000019 0.000005 8.805480 25.107900 -20.055300 22.291600 -0.000001 0.000005 8.619710 5.285800 0.467031 12.994500 -0.242716 -4.980390 87.821300 11.600700 -79.286900 -5.348130 -0.000001 -0.000004 -60.625900 24.604900 -12.117400 -24.328900 0.000322 -0.000009 1.741070 4.872250 -19.702800 -22.291500 -0.000108 -0.000004 15.151500 5.401640 -2.990630 -2.192480 -6.469440 -0.000000 -174.219000 -13.494000 3.866970 39.081100 -0.000007 -0.000012 -0.209831 0.352867 30.738000 40.985400 -0.000006 -0.000013 0.207004 4.424900 -72.655000 11.754300 -0.000000 0.000003 -0.000179 -0.001685 -16.641300 -2.192510 6.469440 -0.000001 172.649000 19.654000 -175.357000 -39.081100 -0.002282 -0.040193 -0.239709 0.415291 30.334600 -40.985400 0.000008 0.000006 3.104550 13.646900 -72.772000 -11.754300 -0.000006 -0.000006 -0.001873 -0.027121 -17.675900
0.000000 0.000000 0.000000 0.000000 0.000000 -0.000000 -0.424991 90.472700 2.521880 89.672400 -3.836610 11.610900 15.735700 0.000005 -0.000001 85.455200 81.704600 -85.292800 8.984550 -0.406207 -0.000000 8.776130 -1.306590 0.424772 16.377300 -0.000001 -0.000001 8.761850 -2.453430 2.750070 6.456720 -0.000001 -0.000000 -4.580310 -1.276270 5.113500 12.994200 -0.242716 4.980390 -92.170400 6.877500 -72.437800 5.348090 -0.000007 -0.000001 -60.581500 26.302200 -17.770300 24.328600 0.000019 0.000005 9.054220 24.758300 -20.832500 22.291600 -0.000001 0.000005 8.158330 5.279790 0.632101 12.994500 -0.242716 -4.980390 87.763400 11.398800 -78.821400 -5.348130 -0.000001 -0.000004 -60.158000 20.830400 -12.395300 -24.328900 0.000322 -0.000009 1.665790 4.357800 -20.957300 -22.291500 -0.000108 -0.000004 15.654600 5.408530 -3.216200 -2.192480 -6.469440 -0.000000 -174.236000 -13.570400 3.816500 39.081100 -0.000007 -0.000012 -0.206746 0.346903 30.794300 40.985400 -0.000006 -0.000013 0.229313 4.461700 -72.566300 11.754300 -0.000000 0.000003 -0.000174 -0.001643 -16.639800 -2.192510 6.469440 -0.000001 172.661000 19.552800 -175.449000 -39.081100 -0.002282 -0.040193 -0.243393 0.419872 30.436600 -40.985400 0.000008 0.000006 3.114300 13.556200 -72.710500 -11.754300 -0.000006 -0.000006 -0.002059 -0.029456 -17.770900
0.000000 0.000000 0.000000 0.000000 0.000000 -0.000000 -0.430104 90.483500 2.354740 89.720300 -3.762310 11.828800 15.735700 0.000005 -0.000001 85.296100 81.626800 -85.149100 8.984550 -0.406207 -0.000000 8.927550 -1.364720 0.400230 16.377300 -0.000001 -0.000001 9.512310 -2.440100 2.756060 6.456720 -0.000001 -0.000000 -3.490640 -1.224880 5.073000 12.994200 -0.242716 4.980390 -92.165600 6.766190 -72.205800 5.348090 -0.000007 -0.000001 -60.570600 21.285100 -17.866300 24.328600 0.000019 0.000005 9.145270 24.047000 -21.557300 22.291600 -0.000001 0.000005 7.920110 5.269510 0.912210 12.994500 -0.242716 -4.980390 87.728400 11.176700 -78.434500 -5.348130 -0.000001 -0.000004 -59.313700 17.037100 -12.860300 -24.328900 0.000322 -0.000009 1.682330 4.073130 -22.479300 -22.291500 -0.000108 -0.000004 15.932600 5.410070 -3.267700 -2.192480 -6.469440 -0.000000 -174.232000 -13.591100 3.896520 39.081100 -0.000007 -0.000012 -0.205447 0.344437 30.815200 40.985400 -0.000006 -0.000013 0.271452 4.570680 -72.450700 11.754300 -0.000000 0.000003 -0.000163 -0.001560 -16.636700 -2.192510 6.469440 -0.000001 172.579000 19.590000 -175.370000 -39.081100 -0.002282 -0.040193 -0.240282 0.413459 30.504100 -40.985400 0.000008 0.000006 3.143650 13.537000 -72.638700 -11.754300 -0.000006 -0.000006 -0.001881 -0.027221 -17.680000
0.000000 0.000000 0.000000 0.000000 0.000000 -0.000000 -0.442379 90.491500 2.180330 89.747400 -3.710530 11.980000 15.735700 0.000005 -0.000001 85.146400 81.567000 -85.012200 8.984550 -0.406207 -0.000000 9.043280 -1.418000 0.380390 16.377300 -0.000001 -0.000001 10.254200 -2.452460 2.772330 6.456720 -0.000001 -0.000000 -2.492240 -1.173710 5.016670 12.994200 -0.242716 4.980390 -92.153400 6.665230 -72.049900 5.348090 -0.000007 -0.000001 -59.603200 17.207500 -18.577500 24.328600 0.000019 0.000005 9.615450 24.108900 -22.526200 22.291600 -0.000001 0.000005 7.609790 5.257150 1.242660 12.994500 -0.242716 -4.980390 87.713200 10.955600 -78.133300 -5.348130 -0.000001 -0.000004 -58.039500 13.580600 -13.691000 -24.328900 0.000322 -0.000009 1.729440 3.903120 -23.934500 -22.291500 -0.000108 -0.000004 16.477100 5.412340 -3.343060 -2.192480 -6.469440 -0.000000 -174.227000 -13.594100 3.895150 39.081100 -0.000007 -0.000012 -0.204795 0.342693 30.863000 40.985400 -0.000006 -0.000013 0.292621 4.631070 -72.346900 11.754300 -0.000000 0.000003 -0.000180 -0.001693 -16.641600 -2.192510 6.469440 -0.000001 172.545000 19.628000 -175.365000 -39.081100 -0.002282 -0.040193 -0.240326 0.412333 30.577000 -40.985400 0.000008 0.000006 3.174710 13.510900 -72.567600 -11.754300 -0.000006 -0.000006 -0.002123 -0.030244 -17.802900
0.000000 0.000000 0.000000 0.000000 0.000000 -0.000000 -0.454375 90.500100 1.990310 89.782200 -3.602380 12.159300 15.735700 0.000005 -0.000001 84.951700 81.513200 -84.838900 8.984550 -0.406207 -0.000000 9.145530 -1.484210 0.344120 16.377300 -0.000001 -0.000001 11.012600 -2.481820 2.779970 6.456720 -0.000001 -0.000000 -1.482900 -1.180010 4.993600 12.994200 -0.242716 4.980390 -92.114700 6.507200 -71.953100 5.348090 -0.000007 -0.000001 -57.925300 14.026400 -19.700500 24.328600 0.000019 0.000005 10.181100 24.289900 -23.584600 22.291600 -0.000001 0.000005 7.610890 5.246880 1.515070 12.994500 -0.242716 -4.980390 87.712400 10.699300 -77.856600 -5.348130 -0.000001 -0.000004 -56.441100 10.475200 -14.798600 -24.328900 0.000322 -0.000009 1.664450 3.533650 -25.256800 -22.291500 -0.000108 -0.000004 17.246400 5.414560 -3.416660 -2.192480 -6.469440 -0.000000 -174.230000 -13.585300 3.893670 39.081100 -0.000007 -0.000012 -0.203092 0.339089 30.919200 40.985400 -0.000006 -0.000013 0.327650 4.717730 -72.226600 11.754300 -0.000000 0.000003 -0.000177 -0.001671 -16.640800 -2.192510 6.469440 -0.000001 172.491000 19.677000 -175.344000 -39.081100 -0.002282 -0.040193 -0.240572 0.411437 30.657000 -40.985400 0.000008 0.000006 3.207960 13.491700 -72.489800 -11.754300 -0.000006 -0.000006 -0.002126 -0.030278 -17.804300
0.000000 0.000000 0.000000 0.000000 0.000000 -0.000000 -0.478360 90.510500 1.802640 89.826800 -3.551470 12.362600 15.735700 0.000005 -0.000001 84.785700 81.466800 -84.706500 8.984550 -0.406207 -0.000000 9.233320 -1.541500 0.282879 16.377300 -0.000001 -0.000001 11.809100 -2.499850 2.777850 6.456720 -0.000001 -0.000000 -0.490182 -1.170110 5.012260 12.994200 -0.242716 4.980390 -92.052400 6.277760 -71.854700 5.348090 -0.000007 -0.000001 -56.195800 10.596900 -20.920900 24.328600 0.000019 0.000005 10.876000 24.532400 -24.832000 22.291600 -0.000001 0.000005 7.420890 5.243350 1.607980 12.994500 -0.242716 -4.980390 87.733600 10.402100 -77.636600 -5.348130 -0.000001 -0.000004 -54.816900 7.234970 -16.081800 -24.328900 0.000322 -0.000009 1.647810 3.308660 -26.509100 -22.291500 -0.000108 -0.000004 17.411200 5.414100 -3.401150 -2.192480 -6.469440 -0.000000 -174.227000 -13.593800 3.947670 39.081100 -0.000007 -0.000012 -0.200870 0.335043 30.944400 40.985400 -0.000006 -0.000013 0.351849 4.794430 -72.102700 11.754300 -0.000000 0.000003 -0.000166 -0.001584 -16.637600 -2.192510 6.469440 -0.000001 172.430000 19.755200 -175.302000 -39.081100 -0.002282 -0.040193 -0.236596 0.403434 30.737600 -40.985400 0.000008 0.000006 3.260320 13.475600 -72.412400 -11.754300 -0.000006 -0.000006 -0.002029 -0.029082 -17.755700
